<svg width="1284" height="770" viewBox="0 0 1284 770" fill="none" xmlns="http://www.w3.org/2000/svg">
<g filter="url(#filter0_d_18_137)">
<path d="M1188.49 64.1667H103.51C84.0088 64.1667 68.2 79.9673 68.2 99.4583V670.542C68.2 690.033 84.0088 705.833 103.51 705.833H1188.49C1207.99 705.833 1223.8 690.033 1223.8 670.542V99.4583C1223.8 79.9673 1207.99 64.1667 1188.49 64.1667Z" fill="url(#paint0_linear_18_137)"/>
</g>
<path d="M1162.02 96.25H121.98C107.797 96.25 96.3 107.741 96.3 121.917V648.083C96.3 662.259 107.797 673.75 121.98 673.75H1162.02C1176.2 673.75 1187.7 662.259 1187.7 648.083V121.917C1187.7 107.741 1176.2 96.25 1162.02 96.25Z" fill="url(#paint1_linear_18_137)"/>
<g filter="url(#filter1_i_18_137)">
<path d="M371.393 225.47L392.579 292.845H463.841L406.061 333.27L427.247 398.72L371.393 360.22L315.539 398.72L336.725 333.27L278.945 292.845H350.207L371.393 225.47Z" fill="url(#paint2_linear_18_137)"/>
</g>
<g filter="url(#filter2_i_18_137)">
<path d="M792.87 240.625H603.48C589.297 240.625 577.8 252.116 577.8 266.292V359.333C577.8 373.509 589.297 385 603.48 385H792.87C807.053 385 818.55 373.509 818.55 359.333V266.292C818.55 252.116 807.053 240.625 792.87 240.625Z" fill="url(#paint3_linear_18_137)"/>
</g>
<path d="M315.144 505.246C379.344 457.121 443.544 553.371 507.744 505.246C571.944 457.121 636.144 553.371 700.344 505.246" stroke="url(#paint4_linear_18_137)" stroke-width="10" stroke-linecap="round"/>
<g filter="url(#filter3_i_18_137)">
<path d="M993.647 372.911C1027.33 372.911 1054.64 345.619 1054.64 311.953C1054.64 278.286 1027.33 250.995 993.647 250.995C959.963 250.995 932.657 278.286 932.657 311.953C932.657 345.619 959.963 372.911 993.647 372.911Z" fill="url(#paint5_linear_18_137)"/>
</g>
<path d="M772.955 568.593C813.08 536.51 893.33 536.51 933.455 568.593" stroke="url(#paint6_linear_18_137)" stroke-width="10" stroke-linecap="round"/>
<path opacity="0.9" d="M401.25 128.333H144.45C135.586 128.333 128.4 135.515 128.4 144.375V170.042C128.4 178.901 135.586 186.083 144.45 186.083H401.25C410.114 186.083 417.3 178.901 417.3 170.042V144.375C417.3 135.515 410.114 128.333 401.25 128.333Z" fill="url(#paint7_linear_18_137)"/>
<path d="M160.5 166.833C165.818 166.833 170.13 162.524 170.13 157.208C170.13 151.893 165.818 147.583 160.5 147.583C155.181 147.583 150.87 151.893 150.87 157.208C150.87 162.524 155.181 166.833 160.5 166.833Z" fill="#6B78FF"/>
<path d="M219.885 147.583H194.205C191.546 147.583 189.39 149.738 189.39 152.396V162.021C189.39 164.679 191.546 166.833 194.205 166.833H219.885C222.544 166.833 224.7 164.679 224.7 162.021V152.396C224.7 149.738 222.544 147.583 219.885 147.583Z" fill="#26B56A"/>
<path d="M264.825 147.583H239.145C236.486 147.583 234.33 149.738 234.33 152.396V162.021C234.33 164.679 236.486 166.833 239.145 166.833H264.825C267.484 166.833 269.64 164.679 269.64 162.021V152.396C269.64 149.738 267.484 147.583 264.825 147.583Z" fill="#F8C53A"/>
<path d="M309.765 147.583H284.085C281.426 147.583 279.27 149.738 279.27 152.396V162.021C279.27 164.679 281.426 166.833 284.085 166.833H309.765C312.424 166.833 314.58 164.679 314.58 162.021V152.396C314.58 149.738 312.424 147.583 309.765 147.583Z" fill="#F04B4B"/>
<defs>
<filter id="filter0_d_18_137" x="64.2" y="64.1667" width="1163.6" height="649.667" filterUnits="userSpaceOnUse" color-interpolation-filters="sRGB">
<feFlood flood-opacity="0" result="BackgroundImageFix"/>
<feColorMatrix in="SourceAlpha" type="matrix" values="0 0 0 0 0 0 0 0 0 0 0 0 0 0 0 0 0 0 127 0" result="hardAlpha"/>
<feOffset dy="4"/>
<feGaussianBlur stdDeviation="2"/>
<feComposite in2="hardAlpha" operator="out"/>
<feColorMatrix type="matrix" values="0 0 0 0 0 0 0 0 0 0 0 0 0 0 0 0 0 0 0.25 0"/>
<feBlend mode="normal" in2="BackgroundImageFix" result="effect1_dropShadow_18_137"/>
<feBlend mode="normal" in="SourceGraphic" in2="effect1_dropShadow_18_137" result="shape"/>
</filter>
<filter id="filter1_i_18_137" x="278.945" y="225.47" width="184.896" height="177.25" filterUnits="userSpaceOnUse" color-interpolation-filters="sRGB">
<feFlood flood-opacity="0" result="BackgroundImageFix"/>
<feBlend mode="normal" in="SourceGraphic" in2="BackgroundImageFix" result="shape"/>
<feColorMatrix in="SourceAlpha" type="matrix" values="0 0 0 0 0 0 0 0 0 0 0 0 0 0 0 0 0 0 127 0" result="hardAlpha"/>
<feOffset dy="4"/>
<feGaussianBlur stdDeviation="2"/>
<feComposite in2="hardAlpha" operator="arithmetic" k2="-1" k3="1"/>
<feColorMatrix type="matrix" values="0 0 0 0 0 0 0 0 0 0 0 0 0 0 0 0 0 0 0.25 0"/>
<feBlend mode="normal" in2="shape" result="effect1_innerShadow_18_137"/>
</filter>
<filter id="filter2_i_18_137" x="577.8" y="240.625" width="240.75" height="148.375" filterUnits="userSpaceOnUse" color-interpolation-filters="sRGB">
<feFlood flood-opacity="0" result="BackgroundImageFix"/>
<feBlend mode="normal" in="SourceGraphic" in2="BackgroundImageFix" result="shape"/>
<feColorMatrix in="SourceAlpha" type="matrix" values="0 0 0 0 0 0 0 0 0 0 0 0 0 0 0 0 0 0 127 0" result="hardAlpha"/>
<feOffset dy="4"/>
<feGaussianBlur stdDeviation="2"/>
<feComposite in2="hardAlpha" operator="arithmetic" k2="-1" k3="1"/>
<feColorMatrix type="matrix" values="0 0 0 0 0 0 0 0 0 0 0 0 0 0 0 0 0 0 0.25 0"/>
<feBlend mode="normal" in2="shape" result="effect1_innerShadow_18_137"/>
</filter>
<filter id="filter3_i_18_137" x="932.657" y="250.995" width="121.98" height="125.917" filterUnits="userSpaceOnUse" color-interpolation-filters="sRGB">
<feFlood flood-opacity="0" result="BackgroundImageFix"/>
<feBlend mode="normal" in="SourceGraphic" in2="BackgroundImageFix" result="shape"/>
<feColorMatrix in="SourceAlpha" type="matrix" values="0 0 0 0 0 0 0 0 0 0 0 0 0 0 0 0 0 0 127 0" result="hardAlpha"/>
<feOffset dy="4"/>
<feGaussianBlur stdDeviation="2"/>
<feComposite in2="hardAlpha" operator="arithmetic" k2="-1" k3="1"/>
<feColorMatrix type="matrix" values="0 0 0 0 0 0 0 0 0 0 0 0 0 0 0 0 0 0 0.25 0"/>
<feBlend mode="normal" in2="shape" result="effect1_innerShadow_18_137"/>
</filter>
<linearGradient id="paint0_linear_18_137" x1="646" y1="54.073" x2="646" y2="705.833" gradientUnits="userSpaceOnUse">
<stop stop-color="#0A0038"/>
<stop offset="1" stop-color="#001A8F"/>
</linearGradient>
<linearGradient id="paint1_linear_18_137" x1="642" y1="96.25" x2="642" y2="673.75" gradientUnits="userSpaceOnUse">
<stop stop-color="#000512"/>
<stop offset="1" stop-color="#0038C5"/>
</linearGradient>
<linearGradient id="paint2_linear_18_137" x1="371.393" y1="225.47" x2="371.393" y2="398.72" gradientUnits="userSpaceOnUse">
<stop stop-color="#FFBB00"/>
<stop offset="1" stop-color="#C49000"/>
</linearGradient>
<linearGradient id="paint3_linear_18_137" x1="698.175" y1="240.625" x2="698.175" y2="385" gradientUnits="userSpaceOnUse">
<stop stop-color="#D800FF"/>
<stop offset="1" stop-color="#820099"/>
</linearGradient>
<linearGradient id="paint4_linear_18_137" x1="315.144" y1="505.246" x2="700.344" y2="505.246" gradientUnits="userSpaceOnUse">
<stop stop-color="#848FE6"/>
<stop offset="1" stop-color="#001DFF"/>
</linearGradient>
<linearGradient id="paint5_linear_18_137" x1="993.647" y1="250.995" x2="993.647" y2="372.911" gradientUnits="userSpaceOnUse">
<stop stop-color="#001DFF"/>
<stop offset="1" stop-color="#495080"/>
</linearGradient>
<linearGradient id="paint6_linear_18_137" x1="772.955" y1="556.562" x2="933.455" y2="556.562" gradientUnits="userSpaceOnUse">
<stop stop-color="#820099"/>
<stop offset="1" stop-color="#3749FF"/>
</linearGradient>
<linearGradient id="paint7_linear_18_137" x1="128.4" y1="157.208" x2="417.3" y2="157.208" gradientUnits="userSpaceOnUse">
<stop stop-color="#281191"/>
<stop offset="1" stop-color="#6B78FF"/>
</linearGradient>
</defs>
</svg>
